<!-- Generator: Adobe Illustrator 19.2.1, SVG Export Plug-In  -->
<svg version="1.1"
	 xmlns="http://www.w3.org/2000/svg" xmlns:xlink="http://www.w3.org/1999/xlink" xmlns:a="http://ns.adobe.com/AdobeSVGViewerExtensions/3.0/"
	 x="0px" y="0px" width="198.4px" height="116.5px" viewBox="0 0 198.4 116.5" enable-background="new 0 0 198.4 116.5"
	 xml:space="preserve">
<defs>
</defs>
<g opacity="0.65">
	<g>
		<path fill="#FFFFFF" d="M10.3,0.4h3.8l3.1,17.2h0.1l2.6-17.2h4.3l-4.7,27h-3.9L12.2,9.5h-0.1L9,27.4H5.1L0,0.4h4.3l2.8,17.2h0.1
			L10.3,0.4z"/>
		<path fill="#FFFFFF" d="M29,27.4v-27h4.6v11h4.9v-11h4.6v27h-4.6v-12h-4.9v12H29z"/>
		<path fill="#FFFFFF" d="M50.2,27.4v-27h4.6v27H50.2z"/>
		<path fill="#FFFFFF" d="M71.2,9.4V7.3c0-2.3-1-3.3-2.2-3.3c-1.9,0-2.5,1-2.5,3v13.7c0,2,0.6,3,2.5,3c1.7,0,2.2-1,2.2-2.7v-3.3h4.6
			v3.1c0,3.8-2.2,6.9-6.9,6.9c-4.9,0-7.1-3.1-7.1-6.9V6.9c0-3.8,2.2-6.9,7.1-6.9c4.6,0,6.9,3.4,6.9,7.4v2H71.2z"/>
		<path fill="#FFFFFF" d="M82.4,27.4v-27H87v11H92v-11h4.6v27H92v-12H87v12H82.4z"/>
		<path fill="#FFFFFF" d="M117.7,27.4h-4.6v-27h6.5c5.2,0,7.8,2.2,7.8,8c0,4.3-1.7,6.1-3.3,6.8l3.9,12.2h-4.7l-3.3-11.2
			c-0.6,0.1-1.6,0.1-2.4,0.1V27.4z M117.7,12.5h1.6c2.5,0,3.4-0.9,3.4-4.1c0-3.2-0.9-4.1-3.4-4.1h-1.6V12.5z"/>
		<path fill="#FFFFFF" d="M134.3,27.4v-27h4.6v27H134.3z"/>
		<path fill="#FFFFFF" d="M155.4,0.4h4.6l-5.6,27h-4.6l-5.6-27h4.6l3.4,18.7h0.1L155.4,0.4z"/>
		<path fill="#FFFFFF" d="M164.4,27.4v-27h12.4v4H169v7h6v4h-6v7.9h8.3v4H164.4z"/>
		<path fill="#FFFFFF" d="M187.5,27.4h-4.6v-27h6.5c5.2,0,7.8,2.2,7.8,8c0,4.3-1.7,6.1-3.3,6.8l3.9,12.2h-4.7l-3.3-11.2
			c-0.6,0.1-1.6,0.1-2.4,0.1V27.4z M187.5,12.5h1.6c2.5,0,3.4-0.9,3.4-4.1c0-3.2-0.9-4.1-3.4-4.1h-1.6V12.5z"/>
	</g>
	<g>
		<path fill="#FFFFFF" d="M7.5,115.9H1.2l7-37.9h8.1l7,37.9h-6.3l-1.2-8.4H8.6L7.5,115.9z M9.6,101.9h5.2l-2.6-16.3h-0.1L9.6,101.9z
			"/>
		<path fill="#FFFFFF" d="M36.1,115.9h-6.5V78.1h9.1c7.3,0,11,3.1,11,11.2c0,6.1-2.4,8.5-4.6,9.5l5.5,17.1h-6.6l-4.6-15.7
			c-0.8,0.1-2.2,0.2-3.4,0.2V115.9z M36.1,95.1h2.3c3.5,0,4.8-1.3,4.8-5.8s-1.3-5.8-4.8-5.8h-2.3V95.1z"/>
		<path fill="#FFFFFF" d="M58.5,115.9V78.1h17.4v5.7H65v9.8h8.4v5.7H65v11.1h11.6v5.7H58.5z"/>
		<path fill="#FFFFFF" d="M110.4,115.9h-6.5v-15.7L96,78.1h6.6l4.6,14.4h0.1l4.4-14.4h6.6l-7.9,22.1V115.9z"/>
		<path fill="#FFFFFF" d="M124.5,87.3c0-5.3,3.1-9.7,10-9.7s10,4.4,10,9.7v19.5c0,5.3-3.1,9.7-10,9.7s-10-4.4-10-9.7V87.3z
			 M131,106.6c0,2.8,0.8,4.2,3.5,4.2c2.6,0,3.5-1.4,3.5-4.2V87.4c0-2.8-0.8-4.2-3.5-4.2c-2.6,0-3.5,1.4-3.5,4.2V106.6z"/>
		<path fill="#FFFFFF" d="M153.4,78.1h6.5v28.6c0,2.8,1.1,4.1,3.5,4.1s3.5-1.4,3.5-4.1V78.1h6.5v28.3c0,6.5-3.8,10.1-10,10.1
			s-10-3.6-10-10.1V78.1z"/>
		<path fill="#FFFFFF" d="M186.2,104.8v-4.4c0-3.6,1.4-6.6,2.7-9.1s2.7-4.7,2.7-6.6c0-1.3-0.9-2.4-2.2-2.4c-2.2,0-3.3,2.1-3.7,4
			l-5-1.9c1.6-4.6,4.5-6.9,9.5-6.9c3.9,0,7.5,3,7.5,7c0,3.9-1.6,5.9-3.2,8.1c-1.6,2.2-3.3,4.6-3.3,9.3v2.8H186.2z M185.6,115.9v-6.2
			h6.2v6.2H185.6z"/>
	</g>
	<g>
		<path fill="#FFFFFF" d="M13,47.7v-2.4c0-2.6-1.2-3.8-2.6-3.8c-2.2,0-2.9,1.1-2.9,3.5v15.9c0,2.3,0.7,3.5,2.9,3.5
			c2,0,2.6-1.1,2.6-3.2v-3.8h5.4V61c0,4.4-2.6,8-8,8c-5.6,0-8.2-3.6-8.2-8V44.8c0-4.4,2.6-8,8.2-8c5.4,0,8,3.9,8,8.6v2.3H13z"/>
		<path fill="#FFFFFF" d="M26,68.6V37.3h5.4V50h5.7V37.3h5.4v31.3h-5.4V54.7h-5.7v13.9H26z"/>
		<path fill="#FFFFFF" d="M53,68.6h-5.2l5.8-31.3h6.7L66,68.6h-5.2l-1-6.9h-5.9L53,68.6z M54.7,57h4.3l-2.1-13.5h-0.1L54.7,57z"/>
		<path fill="#FFFFFF" d="M76.7,68.6h-5.4V37.3h7.6c6,0,9.1,2.6,9.1,9.2c0,5-2,7.1-3.8,7.9l4.6,14.2h-5.5l-3.8-13
			c-0.7,0.1-1.8,0.1-2.8,0.1V68.6z M76.7,51.3h1.9c2.9,0,4-1.1,4-4.8c0-3.7-1.1-4.8-4-4.8h-1.9V51.3z"/>
		<path fill="#FFFFFF" d="M98.3,68.6h-5.2l5.8-31.3h6.7l5.8,31.3h-5.2l-1-6.9h-5.9L98.3,68.6z M100,57h4.3l-2.1-13.5h-0.1L100,57z"
			/>
		<path fill="#FFFFFF" d="M127.5,47.7v-2.4c0-2.6-1.2-3.8-2.6-3.8c-2.2,0-2.9,1.1-2.9,3.5v15.9c0,2.3,0.7,3.5,2.9,3.5
			c2,0,2.6-1.1,2.6-3.2v-3.8h5.4V61c0,4.4-2.6,8-8,8c-5.6,0-8.2-3.6-8.2-8V44.8c0-4.4,2.6-8,8.2-8c5.4,0,8,3.9,8,8.6v2.3H127.5z"/>
		<path fill="#FFFFFF" d="M143.6,41.9h-5.2v-4.7h15.8v4.7H149v26.6h-5.4V41.9z"/>
		<path fill="#FFFFFF" d="M159.5,68.6V37.3h14.4v4.7h-9V50h6.9v4.7h-6.9v9.2h9.6v4.7H159.5z"/>
		<path fill="#FFFFFF" d="M186.3,68.6H181V37.3h7.6c6,0,9.1,2.6,9.1,9.2c0,5-2,7.1-3.8,7.9l4.6,14.2h-5.5l-3.8-13
			c-0.7,0.1-1.8,0.1-2.8,0.1V68.6z M186.3,51.3h1.9c2.9,0,4-1.1,4-4.8c0-3.7-1.1-4.8-4-4.8h-1.9V51.3z"/>
	</g>
</g>
</svg>
